<?xml version="1.0" standalone="no"?>
<!DOCTYPE svg PUBLIC "-//W3C//DTD SVG 20010904//EN"
 "http://www.w3.org/TR/2001/REC-SVG-20010904/DTD/svg10.dtd">
<svg version="1.0" xmlns="http://www.w3.org/2000/svg"
 width="4501.000000pt" height="4501.000000pt" viewBox="0 0 4501.000000 4501.000000"
 preserveAspectRatio="xMidYMid meet">

<g transform="translate(0.000000,4501.000000) scale(0.100000,-0.100000)"
fill="#000000" stroke="none">
<path d="M6822 24269 c-464 -41 -896 -248 -1169 -560 -239 -274 -377 -601
-413 -974 -56 -595 110 -1106 479 -1475 270 -270 610 -430 1031 -486 151 -20
414 -14 560 11 105 19 301 73 370 103 l45 19 58 -23 c199 -78 454 -124 689
-124 447 0 876 155 1200 434 251 216 448 560 517 904 60 297 51 660 -23 942
-129 494 -503 917 -974 1101 -424 166 -900 178 -1335 35 l-128 -42 -62 24
c-234 88 -583 134 -845 111z m354 -44 c105 -19 239 -62 326 -106 99 -49 98
-46 6 -102 -252 -151 -464 -379 -602 -647 -115 -223 -167 -417 -188 -697 -26
-361 36 -711 176 -987 158 -310 359 -520 682 -712 17 -10 11 -15 -51 -46 -179
-91 -345 -131 -535 -131 -198 0 -352 38 -535 131 -395 203 -673 644 -760 1207
-23 143 -30 461 -16 625 51 569 287 1026 659 1279 242 164 559 234 838 186z
m1505 -5 c578 -118 978 -608 1086 -1330 24 -161 24 -579 0 -740 -85 -570 -364
-1017 -762 -1222 -183 -93 -337 -131 -535 -131 -150 0 -237 15 -378 65 -98 34
-222 94 -222 107 0 4 12 13 27 20 114 52 337 231 440 353 337 398 473 925 387
1503 -69 462 -318 866 -694 1124 -47 32 -100 66 -117 75 -18 9 -33 21 -33 26
0 15 129 77 229 110 186 62 391 77 572 40z"/>
<path d="M28971 24083 c-27 -87 -217 -690 -421 -1341 -400 -1278 -444 -1409
-526 -1579 -58 -121 -145 -228 -214 -263 -42 -21 -132 -49 -198 -60 -27 -4
142 -8 388 -8 432 -1 434 0 355 16 -177 37 -222 106 -212 322 6 132 40 279
131 564 l57 176 525 0 c520 0 526 0 531 -20 3 -11 29 -79 58 -150 160 -395
410 -681 739 -847 102 -51 286 -110 422 -134 169 -30 459 -36 664 -15 559 59
911 227 1059 506 100 187 107 478 16 665 -104 214 -286 363 -780 636 -132 73
-285 160 -341 194 -323 197 -505 406 -560 641 -19 85 -19 244 1 328 34 150
136 299 259 378 137 89 365 123 534 80 108 -28 195 -71 271 -135 163 -139 258
-329 278 -561 7 -80 8 -76 39 208 31 271 32 291 16 303 -52 41 -106 75 -177
110 -340 171 -819 189 -1133 42 -313 -145 -447 -387 -429 -774 12 -259 100
-460 286 -657 151 -160 322 -282 651 -468 348 -197 473 -277 578 -375 115
-106 172 -224 172 -356 0 -282 -211 -508 -565 -606 -96 -27 -110 -28 -325 -28
-245 0 -308 9 -474 65 -377 127 -657 431 -829 900 -36 96 -431 1333 -742 2318
-16 52 -31 82 -40 82 -9 0 -31 -52 -64 -157z m144 -1288 c135 -446 248 -818
251 -827 5 -17 -24 -18 -505 -18 -372 0 -511 3 -511 11 0 6 106 352 236 768
130 416 245 785 256 819 11 35 21 62 23 60 2 -2 114 -368 250 -813z"/>
<path d="M33520 24225 c-354 -60 -588 -233 -680 -505 -32 -93 -40 -316 -15
-425 31 -143 129 -294 274 -427 85 -77 308 -225 486 -323 383 -211 505 -294
660 -450 171 -171 223 -269 245 -464 17 -154 -11 -308 -83 -446 -47 -90 -182
-220 -282 -272 -155 -80 -326 -112 -490 -93 -331 37 -583 212 -725 504 -71
145 -100 266 -108 450 l-7 149 -87 -359 -87 -359 67 -63 c507 -479 1511 -511
1963 -62 119 117 193 252 225 410 22 113 15 323 -15 428 -83 287 -358 552
-841 812 -492 264 -737 454 -830 643 -78 159 -78 324 0 483 31 64 56 96 117
155 129 123 276 179 468 179 202 0 359 -62 490 -194 131 -131 209 -307 222
-499 3 -48 8 -86 10 -83 4 4 63 507 63 543 0 28 -63 76 -180 137 -129 66 -284
114 -443 135 -103 14 -323 12 -417 -4z"/>
<path d="M38410 24225 c-445 -70 -710 -347 -710 -744 0 -310 144 -530 500
-768 100 -67 176 -112 455 -268 270 -151 452 -290 570 -437 121 -151 159 -262
159 -463 0 -144 -14 -215 -65 -322 -153 -322 -565 -484 -951 -374 -166 48
-268 109 -393 235 -81 82 -109 118 -147 192 -94 179 -126 298 -136 508 l-7
128 -84 -350 c-94 -397 -95 -355 4 -442 201 -176 460 -289 780 -341 116 -19
418 -17 530 4 388 71 655 247 793 523 109 216 102 559 -15 764 -137 241 -377
442 -798 670 -343 186 -503 292 -644 426 -171 163 -224 269 -223 449 1 169 55
290 180 407 116 107 248 158 432 165 107 5 138 2 209 -16 133 -35 213 -81 312
-180 72 -72 94 -101 132 -181 46 -94 79 -212 93 -335 7 -54 11 -31 39 215 17
151 30 280 28 286 -7 20 -163 116 -245 150 -239 101 -543 139 -798 99z"/>
<path d="M23440 24215 c-255 -37 -503 -123 -704 -245 -567 -342 -863 -951
-808 -1659 29 -373 135 -654 348 -926 414 -529 1205 -756 1957 -560 305 79
603 241 820 444 l37 35 0 346 c0 595 28 691 220 762 43 16 24 16 -450 16
l-495 0 78 -19 c97 -23 124 -38 169 -87 44 -49 76 -131 89 -233 17 -122 6
-589 -15 -664 -62 -226 -239 -414 -478 -509 -135 -53 -230 -70 -398 -70 -210
-1 -361 31 -553 115 -466 205 -807 707 -881 1299 -56 450 -9 833 139 1145 222
467 651 745 1190 772 342 17 610 -80 821 -298 157 -163 240 -354 253 -582 l6
-109 68 319 c37 175 68 323 67 328 0 15 -191 136 -299 190 -185 92 -395 157
-616 190 -122 18 -442 18 -565 0z"/>
<path d="M10534 24164 c38 -9 85 -24 105 -34 87 -44 143 -142 161 -280 8 -59
10 -486 8 -1405 l-3 -1320 -22 -66 c-42 -122 -101 -182 -211 -210 -66 -18 -63
-18 428 -18 488 0 494 1 434 18 -119 34 -176 89 -216 209 -22 67 -22 71 -26
790 l-3 722 731 0 731 0 -3 -732 -3 -733 -24 -64 c-25 -68 -84 -142 -133 -167
-15 -8 -54 -21 -85 -28 -52 -13 -6 -14 442 -14 275 0 491 2 480 5 -11 2 -44
11 -73 19 -105 29 -179 132 -202 279 -7 48 -10 491 -8 1410 l3 1340 22 65 c43
126 110 184 248 213 65 14 34 15 -470 15 -482 0 -533 -1 -472 -13 123 -25 181
-65 228 -157 46 -90 49 -136 49 -785 l0 -613 -731 0 -730 0 4 633 c3 532 6
640 19 682 46 150 107 205 268 241 46 10 -35 12 -480 12 -497 0 -530 -1 -466
-14z"/>
<path d="M14968 24165 c173 -38 246 -126 272 -327 14 -112 14 -2309 0 -2447
-28 -265 -126 -462 -270 -537 l-45 -23 345 0 345 -1 -50 24 c-102 47 -196 188
-247 371 l-23 80 -2 1200 -2 1200 21 -60 c12 -33 236 -692 498 -1465 411
-1207 481 -1405 498 -1408 15 -2 23 5 31 30 6 18 191 659 411 1423 220 765
404 1399 409 1410 13 28 14 -2376 1 -2475 -25 -187 -91 -274 -240 -314 -50
-13 -13 -15 440 -14 272 0 486 2 475 5 -11 2 -44 11 -73 19 -108 30 -180 133
-202 289 -8 57 -10 463 -8 1410 l3 1330 22 65 c43 126 110 184 248 213 68 15
61 15 -241 16 -289 1 -312 0 -316 -16 -49 -181 -802 -2780 -807 -2786 -4 -4
-219 625 -477 1398 l-469 1405 -305 -1 c-284 -1 -301 -2 -242 -14z"/>
<path d="M18027 24165 c163 -35 271 -149 383 -403 23 -51 178 -442 346 -870
l305 -777 -4 -415 c-3 -343 -7 -428 -21 -490 -38 -166 -121 -281 -249 -345
l-70 -35 534 0 534 1 -63 30 c-75 37 -162 119 -197 188 -13 27 -34 82 -47 123
-21 70 -22 93 -26 511 l-3 439 271 696 c395 1012 426 1080 543 1201 85 87 146
119 277 146 58 12 23 13 -335 13 -247 0 -381 -4 -350 -9 76 -12 128 -36 166
-75 33 -34 34 -38 37 -122 3 -68 -2 -109 -21 -183 -23 -87 -589 -1583 -606
-1602 -12 -13 -627 1607 -646 1702 -36 174 15 253 178 280 33 5 -139 9 -473 9
-466 0 -518 -1 -463 -13z"/>
<path d="M25560 24165 c161 -32 227 -96 265 -257 22 -94 22 -2708 0 -2812 -30
-140 -97 -214 -222 -247 -66 -17 -45 -18 895 -18 529 -1 962 2 962 7 0 4 29
178 65 386 36 209 63 381 61 384 -2 2 -7 -12 -11 -30 -20 -91 -80 -249 -122
-320 -91 -153 -262 -295 -413 -342 -123 -39 -222 -49 -433 -43 -209 5 -258 15
-309 64 -15 15 -36 47 -45 72 -17 43 -18 132 -18 1471 l0 1425 23 56 c48 121
113 174 247 202 65 14 34 15 -470 15 -471 0 -532 -2 -475 -13z"/>
<path d="M35142 24165 c161 -32 232 -103 267 -263 14 -69 16 -2713 1 -2793 -5
-30 -24 -83 -42 -119 -39 -77 -87 -114 -179 -140 -63 -18 -47 -19 954 -19 559
-1 1017 2 1017 7 0 4 29 176 65 382 36 206 65 380 64 385 0 6 -15 -39 -33
-100 -40 -135 -61 -184 -122 -277 -91 -141 -249 -267 -393 -312 -129 -41 -218
-49 -493 -44 -321 6 -360 18 -412 128 -21 44 -21 55 -24 808 l-3 763 358 -3
c349 -3 359 -4 408 -26 110 -51 166 -139 205 -322 l19 -85 0 455 0 455 -20
-93 c-35 -169 -98 -267 -202 -313 -51 -24 -58 -24 -409 -27 l-358 -3 0 760 0
761 344 0 c449 0 530 -14 695 -124 171 -114 287 -284 351 -514 13 -45 25 -81
27 -79 3 4 -105 657 -123 740 l-6 27 -1011 -1 c-871 -1 -1003 -3 -945 -14z"/>
</g>
</svg>
